<svg id="Layer_1" height="512" viewBox="0 0 512 512" width="512" xmlns="http://www.w3.org/2000/svg" data-name="Layer 1"><path d="m8 499.2h68.851a8.038 8.038 0 0 0 8-8v-118.1a7.993 7.993 0 0 0 -8-8h-68.851a8 8 0 0 0 -8 8v118.1a8.044 8.044 0 0 0 8 8zm60.257-204.19a7.848 7.848 0 0 0 4.651 4 9.661 9.661 0 0 0 2.465.357 8.081 8.081 0 0 0 3.636-.857l172.291-87.949 12.532 24.506a8 8 0 0 0 14.453-.429l36.958-83.948a8.034 8.034 0 0 0 -5.644-11.074l-89.706-19.29a7.979 7.979 0 0 0 -8.809 11.431l12.531 24.577-172.284 87.949a8.049 8.049 0 0 0 -3.493 10.788l20.419 39.938zm358.118-282.21a85.627 85.627 0 1 0 85.625 85.592 85.7 85.7 0 0 0 -85.625-85.592zm15.839 63.586c0-5.144-3.157-9.645-7.844-12.074v27.079c13.7 3.357 23.841 15.075 23.841 29.078 0 13.932-10.138 25.649-23.841 29.007v6.429a8 8 0 1 1 -16 0v-6.429c-13.689-3.358-23.841-15.075-23.841-29.007a8 8 0 1 1 16 0c0 5.072 3.165 9.573 7.844 12v-27.004c-13.689-3.358-23.841-15.146-23.841-29.078s10.152-25.649 23.841-29.007v-6.5a8 8 0 1 1 16 0v6.5c13.7 3.358 23.841 15.075 23.841 29.007a8 8 0 1 1 -16 0zm-31.685 0c0-5.144 3.165-9.645 7.844-12.074v24.149c-4.679-2.429-7.844-6.93-7.844-12.074zm31.685 44.082c0 5.072-3.157 9.573-7.844 12v-24.145c4.687 2.5 7.844 6.93 7.844 12.146zm18.591 378.732a8.041 8.041 0 0 0 7.994-8v-277.495a8 8 0 0 0 -7.994-8h-68.852a7.993 7.993 0 0 0 -8 8v277.495a8.038 8.038 0 0 0 8 8zm-204.833-232.412a7.993 7.993 0 0 1 8-8h68.838a7.993 7.993 0 0 1 8 8v224.412a8.038 8.038 0 0 1 -8 8h-68.837a8.038 8.038 0 0 1 -8-8v-224.412zm-51.141 232.412a8.039 8.039 0 0 0 8-8v-171.256a7.994 7.994 0 0 0 -8-8h-68.851a8 8 0 0 0 -7.995 8v171.256a8.041 8.041 0 0 0 7.995 8z" fill-rule="evenodd"/></svg>